# xmcd
#
# Track frame offsets:
#	183
#	23208
#	40350
#	53238
#	70208
#	93988
#	111805
#	129390
#	150318
#
# Disc length: 2293 seconds
# Revision: 0
# Processed by: cddbd v1.5.2PL0 Copyright (c) Steve Scherf et al.
# Submitted via: dBpowerAMP V12.0
#
DISCID=6e08f309
DTITLE=The Robert Cray Band - From Heart to Crown
DYEAR=1985
DGENRE=Blues
TTITLE0=Porch Light
TTITLE1=Change of Heart, Change of Mind
TTITLE2=She's Gone
TTITLE3=Playin' in the Dirt
TTITLE4=I've Slipped Her Mind
TTITLE5=False Accusations
TTITLE6=The Last Time (I Get Burned Like This)
TTITLE7=Payin For It Now
TTITLE8=Sonny
EXTD=
EXTT0=
EXTT1=
EXTT2=
EXTT3=
EXTT4=
EXTT5=
EXTT6=
EXTT7=
EXTT8=
PLAYORDER=
